<svg width="456" height="65" viewBox="0 0 456 65" fill="none" xmlns="http://www.w3.org/2000/svg">
<g clip-path="url(#clip0_993_96)">
<mask id="mask0_993_96" style="mask-type:luminance" maskUnits="userSpaceOnUse" x="0" y="0" width="456" height="65">
<path d="M456 0H0V65H456V0Z" fill="white"/>
</mask>
<g mask="url(#mask0_993_96)">
<path d="M9.96911 63.5468H0V17.0527H9.96911V24.7326C12.7265 18.9208 16.7566 16.0149 22.2714 16.0149C23.9683 16.0149 25.241 16.0149 26.7257 16.2224H27.1499V25.5628H26.7257C25.6652 25.3552 24.8167 25.3552 23.7562 25.3552C15.6961 25.3552 9.96911 31.167 9.96911 39.6771V63.5468Z" fill="#191731"/>
<path d="M59.603 39.6773C57.9062 40.7152 54.5124 41.5455 49.846 42.5832C41.3617 44.2437 38.3921 46.5269 38.3921 50.8857C38.3921 55.2446 40.7253 57.1127 46.0281 57.1127C54.7245 57.1127 59.8151 52.7539 59.8151 45.4891V39.6773H59.603ZM43.907 64.7925C39.2406 64.7925 35.2105 63.5471 32.4531 61.0564C29.6957 58.5656 28.2109 55.2446 28.2109 51.3009C28.2109 46.3194 30.1199 42.7908 33.7257 40.3C37.5437 37.8093 43.0585 36.5639 48.1491 35.5261C55.7851 34.0732 59.8151 33.2429 59.8151 29.0916C59.8151 25.3555 57.0577 23.4875 51.3308 23.4875C47.3007 23.4875 44.7554 24.1101 43.0585 25.3555C41.5738 26.6009 40.7253 28.4689 40.5132 31.5824V31.9975H30.5441V31.5824C30.7562 26.8085 32.6652 22.8648 35.8468 20.1664C39.4527 17.053 44.7554 15.6001 51.755 15.6001C63.421 15.6001 69.5722 21.2043 69.5722 31.79V52.7539C69.5722 56.6975 70.2085 57.3202 71.4811 57.3202C71.6933 57.3202 71.9054 57.3202 72.5417 57.3202H72.9659V63.5471H72.7538C71.0569 63.9623 69.5722 64.1698 68.0874 64.1698C65.5421 64.1698 63.8452 63.7547 62.5726 62.5093C61.2999 61.4715 60.6636 59.811 60.2394 57.7353C56.6335 62.3017 51.1187 64.7925 43.907 64.7925Z" fill="#191731"/>
<path d="M145.931 63.5473H135.962V33.8658C135.962 27.8465 134.689 24.1104 128.113 24.1104C121.75 24.1104 117.508 28.4692 117.508 35.1112V63.5473H107.539V33.8658C107.539 27.8465 106.267 24.1104 99.691 24.1104C93.3279 24.1104 89.0851 28.4692 89.0851 35.1112V63.5473H79.1167V17.0532H89.0851V22.2423C91.6311 19.1288 95.8731 15.8079 102.873 15.8079C109.236 15.8079 113.478 18.5061 115.599 23.4877C119.841 18.2986 124.932 15.8079 131.083 15.8079C135.962 15.8079 139.568 17.2608 142.113 19.9591C144.658 22.6574 145.718 26.6011 145.718 31.5826V63.5473H145.931Z" fill="#191731"/>
<path d="M176.687 23.9026C167.99 23.9026 162.9 30.1295 162.9 40.5076C162.9 50.8857 167.99 57.1127 176.687 57.1127C185.171 57.1127 190.261 50.8857 190.261 40.5076C190.261 29.9219 185.171 23.9026 176.687 23.9026ZM176.474 65C161.839 65 152.506 55.2446 152.506 40.3C152.506 33.0353 154.627 27.016 158.869 22.4496C163.111 17.8832 169.263 15.6001 176.474 15.6001C183.687 15.6001 189.625 17.8832 194.08 22.4496C198.322 26.8085 200.443 33.0353 200.443 40.0925C200.443 47.3572 198.322 53.5841 194.08 57.9429C189.837 62.5093 183.687 65 176.474 65Z" fill="#191731"/>
<path d="M248.592 63.5473H238.623V33.8658C238.623 30.7524 237.986 28.4692 236.502 26.8086C235.017 24.9406 232.684 24.1104 229.502 24.1104C222.078 24.1104 217.2 28.4692 217.2 35.1112V63.5473H207.23V17.0532H217.2V22.2423C219.321 19.544 223.987 15.8079 232.472 15.8079C237.138 15.8079 240.956 17.0532 243.925 19.544C247.107 22.2423 248.592 26.3936 248.592 31.3751V63.5473Z" fill="#191731"/>
<path d="M276.591 64.7925C269.803 64.7925 264.076 63.132 260.258 60.0185C256.652 57.1127 254.743 52.9614 254.531 47.9798V47.5648H264.5V47.9798C264.925 53.9992 269.167 57.1127 276.591 57.1127C284.651 57.1127 286.347 53.5841 286.347 50.6782C286.347 45.9043 281.469 44.8664 275.954 43.8286C275.318 43.6211 274.894 43.6211 274.257 43.4135C270.439 42.5832 265.773 41.5455 262.167 39.2623C258.137 36.9791 256.228 33.658 256.228 29.2992C256.228 25.148 257.925 21.8269 261.107 19.3362C264.288 16.8455 268.955 15.6001 274.681 15.6001C280.833 15.6001 285.923 17.053 289.529 19.9589C292.711 22.6572 294.62 26.1858 295.044 30.5446V30.9598H285.075V30.5446C284.439 27.4312 282.742 23.2799 275.106 23.2799C269.591 23.2799 266.833 25.148 266.833 28.6765C266.833 32.6202 270.652 33.4505 276.166 34.4883C276.802 34.6959 277.651 34.6959 278.499 34.9034C283.166 35.9412 287.62 36.9791 291.014 39.2623C295.044 41.753 296.953 45.2816 296.953 50.0555C296.953 54.6219 295.044 58.358 291.65 60.8488C287.832 63.5471 282.742 64.7925 276.591 64.7925Z" fill="#191731"/>
<path d="M324.314 23.9026C315.618 23.9026 310.527 30.1295 310.527 40.5076C310.527 50.8857 315.618 57.1127 324.314 57.1127C332.799 57.1127 337.889 50.8857 337.889 40.5076C337.889 29.9219 332.799 23.9026 324.314 23.9026ZM324.102 65C309.467 65 300.134 55.2446 300.134 40.3C300.134 33.0353 302.255 27.016 306.497 22.4496C310.74 17.8832 316.89 15.6001 324.102 15.6001C331.314 15.6001 337.253 17.8832 341.707 22.4496C345.949 26.8085 348.07 33.0353 348.07 40.0925C348.07 47.3572 345.949 53.5841 341.707 57.9429C337.465 62.5093 331.314 65 324.102 65Z" fill="#191731"/>
<path d="M364.261 0H353.468V65H364.261V0Z" fill="#191731"/>
<path d="M379.84 35.3185H405.934C405.722 28.4689 400.63 23.4875 393.205 23.4875C385.78 23.695 380.476 28.2614 379.84 35.3185ZM393.417 65C386.204 65 380.052 62.5093 375.809 57.9429C371.778 53.5841 369.657 47.3572 369.657 40.3C369.657 33.0353 371.778 27.016 376.021 22.4496C380.264 17.8832 386.204 15.6001 393.417 15.6001C400.418 15.6001 406.358 17.8832 410.177 22.0345C413.995 26.1858 416.116 32.2051 416.116 39.2623C416.116 40.5076 416.116 41.9605 416.116 42.5832V42.9984H380.052C380.476 50.0555 384.719 56.9051 393.842 56.9051C403.176 56.9051 405.51 50.2631 405.934 49.0177V48.8101H416.116L415.905 49.2253C414.631 53.7916 412.086 57.7353 408.479 60.4337C404.236 63.5471 399.357 65 393.417 65Z" fill="#191731"/>
<path d="M432.876 63.5468H422.905V17.0527H432.876V24.7326C435.846 18.9208 439.877 16.0149 445.393 16.0149C447.09 16.0149 448.363 16.0149 449.848 16.2224H450.272V25.5628H449.848C448.787 25.3552 447.939 25.3552 446.878 25.3552C438.816 25.3552 433.088 31.167 433.088 39.6771V63.5468H432.876Z" fill="#191731"/>
<path d="M456 58.1504C456 61.4714 453.242 64.1697 449.847 64.1697C446.453 64.1697 443.695 61.4714 443.695 58.1504C443.695 54.8294 446.453 52.1311 449.847 52.1311C453.242 52.1311 456 54.8294 456 58.1504Z" fill="#191731"/>
</g>
</g>
<defs>
<clipPath id="clip0_993_96">
<rect width="456" height="65" fill="white"/>
</clipPath>
</defs>
</svg>
